<?xml version="1.0" encoding="UTF-8" standalone="no"?>
<!DOCTYPE svg PUBLIC "-//W3C//DTD SVG 1.1//EN" "http://www.w3.org/Graphics/SVG/1.1/DTD/svg11.dtd">
<svg width="100%" height="100%" viewBox="0 0 1600 300" version="1.1" xmlns="http://www.w3.org/2000/svg" xmlns:xlink="http://www.w3.org/1999/xlink" xml:space="preserve" xmlns:serif="http://www.serif.com/" style="fill-rule:evenodd;clip-rule:evenodd;stroke-linejoin:round;stroke-miterlimit:2;">
    <g transform="matrix(1.14738,0,0,1.14738,-71.8967,11.1072)">
        <g transform="matrix(235.927,0,0,235.927,57.1714,226.984)">
            <path d="M0.655,-0.182C0.655,-0.141 0.644,-0.108 0.622,-0.081C0.6,-0.054 0.571,-0.034 0.535,-0.02C0.498,-0.007 0.458,-0 0.414,-0L0.068,-0L0.068,-0.71L0.463,-0.71C0.496,-0.71 0.525,-0.701 0.549,-0.684C0.574,-0.666 0.592,-0.643 0.605,-0.615C0.618,-0.587 0.625,-0.558 0.625,-0.528C0.625,-0.495 0.616,-0.463 0.599,-0.433C0.582,-0.402 0.556,-0.379 0.523,-0.364C0.563,-0.352 0.596,-0.331 0.619,-0.3C0.643,-0.269 0.655,-0.23 0.655,-0.182ZM0.488,-0.215C0.488,-0.23 0.485,-0.244 0.479,-0.255C0.473,-0.267 0.465,-0.277 0.456,-0.284C0.446,-0.291 0.434,-0.294 0.421,-0.294L0.232,-0.294L0.232,-0.139L0.414,-0.139C0.428,-0.139 0.44,-0.142 0.452,-0.149C0.463,-0.155 0.472,-0.164 0.478,-0.176C0.485,-0.187 0.488,-0.2 0.488,-0.215ZM0.232,-0.57L0.232,-0.423L0.393,-0.423C0.405,-0.423 0.416,-0.426 0.427,-0.431C0.437,-0.436 0.446,-0.444 0.452,-0.455C0.459,-0.466 0.462,-0.48 0.462,-0.497C0.462,-0.513 0.459,-0.526 0.454,-0.537C0.448,-0.547 0.44,-0.556 0.431,-0.561C0.421,-0.567 0.411,-0.57 0.399,-0.57L0.232,-0.57Z" style="fill:rgb(0,144,193);fill-rule:nonzero;"/>
        </g>
        <g transform="matrix(235.927,0,0,235.927,211.703,226.984)">
            <path d="M0.068,-0L0.068,-0.71L0.388,-0.71C0.421,-0.71 0.452,-0.703 0.481,-0.689C0.509,-0.676 0.534,-0.657 0.554,-0.634C0.575,-0.611 0.591,-0.585 0.602,-0.557C0.614,-0.528 0.62,-0.499 0.62,-0.47C0.62,-0.441 0.615,-0.413 0.606,-0.386C0.596,-0.36 0.583,-0.336 0.566,-0.315C0.548,-0.294 0.528,-0.277 0.504,-0.264L0.66,-0L0.479,-0L0.343,-0.229L0.232,-0.229L0.232,-0L0.068,-0ZM0.232,-0.372L0.382,-0.372C0.395,-0.372 0.407,-0.377 0.417,-0.385C0.428,-0.393 0.437,-0.405 0.443,-0.419C0.45,-0.434 0.453,-0.451 0.453,-0.47C0.453,-0.489 0.449,-0.506 0.442,-0.521C0.434,-0.535 0.425,-0.546 0.413,-0.554C0.401,-0.562 0.389,-0.566 0.377,-0.566L0.232,-0.566L0.232,-0.372Z" style="fill:rgb(0,144,193);fill-rule:nonzero;"/>
        </g>
        <g transform="matrix(235.927,0,0,235.927,363.169,226.984)">
            <path d="M0.379,0.006C0.326,0.006 0.278,-0.004 0.235,-0.025C0.192,-0.045 0.155,-0.072 0.124,-0.107C0.092,-0.141 0.069,-0.18 0.052,-0.223C0.035,-0.266 0.027,-0.31 0.027,-0.356C0.027,-0.403 0.036,-0.448 0.054,-0.491C0.071,-0.534 0.096,-0.572 0.128,-0.606C0.159,-0.639 0.197,-0.666 0.24,-0.685C0.283,-0.704 0.331,-0.714 0.382,-0.714C0.435,-0.714 0.483,-0.704 0.526,-0.684C0.568,-0.663 0.606,-0.636 0.637,-0.601C0.668,-0.566 0.691,-0.528 0.708,-0.485C0.725,-0.442 0.733,-0.398 0.733,-0.353C0.733,-0.306 0.724,-0.261 0.707,-0.218C0.69,-0.175 0.665,-0.137 0.633,-0.104C0.601,-0.07 0.564,-0.043 0.521,-0.024C0.478,-0.004 0.43,0.006 0.379,0.006ZM0.194,-0.354C0.194,-0.327 0.198,-0.3 0.206,-0.275C0.214,-0.249 0.226,-0.226 0.242,-0.206C0.257,-0.186 0.277,-0.17 0.3,-0.158C0.323,-0.146 0.35,-0.14 0.38,-0.14C0.411,-0.14 0.439,-0.146 0.462,-0.159C0.485,-0.171 0.505,-0.187 0.52,-0.208C0.535,-0.229 0.547,-0.252 0.555,-0.278C0.562,-0.303 0.566,-0.329 0.566,-0.356C0.566,-0.383 0.562,-0.41 0.554,-0.435C0.546,-0.46 0.534,-0.483 0.518,-0.504C0.502,-0.524 0.482,-0.54 0.459,-0.551C0.436,-0.562 0.409,-0.568 0.38,-0.568C0.349,-0.568 0.322,-0.562 0.299,-0.55C0.276,-0.538 0.256,-0.522 0.241,-0.502C0.225,-0.481 0.213,-0.458 0.206,-0.433C0.198,-0.407 0.194,-0.381 0.194,-0.354ZM0.211,-0.779L0.211,-0.908L0.343,-0.908L0.343,-0.779L0.211,-0.779ZM0.421,-0.779L0.421,-0.908L0.553,-0.908L0.553,-0.779L0.421,-0.779Z" style="fill:rgb(0,144,193);fill-rule:nonzero;"/>
        </g>
        <g transform="matrix(235.927,0,0,235.927,541.765,226.984)">
            <path d="M0.232,-0.406L0.232,-0L0.068,-0L0.068,-0.71L0.198,-0.71L0.527,-0.292L0.527,-0.71L0.691,-0.71L0.691,-0L0.557,-0L0.232,-0.406Z" style="fill:rgb(0,144,193);fill-rule:nonzero;"/>
        </g>
        <g transform="matrix(235.927,0,0,235.927,724.844,226.984)">
            <path d="M0.068,-0L0.068,-0.71L0.232,-0.71L0.232,-0.404L0.492,-0.71L0.676,-0.71L0.41,-0.393L0.694,-0L0.506,-0L0.306,-0.285L0.232,-0.209L0.232,-0L0.068,-0Z" style="fill:rgb(0,144,193);fill-rule:nonzero;"/>
        </g>
        <g transform="matrix(235.927,0,0,235.927,871.355,226.984)">
            <path d="M0.238,-0L0.021,-0.52L0.074,-0.52L0.265,-0.053L0.457,-0.52L0.507,-0.52L0.29,-0L0.238,-0Z" style="fill:rgb(39,49,63);fill-rule:nonzero;"/>
        </g>
        <g transform="matrix(235.927,0,0,235.927,994.037,226.984)">
            <path d="M0.078,-0L0.078,-0.52L0.128,-0.52L0.128,-0L0.078,-0ZM0.078,-0.638L0.078,-0.73L0.128,-0.73L0.128,-0.638L0.078,-0.638Z" style="fill:rgb(39,49,63);fill-rule:nonzero;"/>
        </g>
        <g transform="matrix(235.927,0,0,235.927,1038.39,226.984)">
            <path d="M0.042,-0.259C0.042,-0.307 0.052,-0.352 0.073,-0.393C0.094,-0.434 0.122,-0.467 0.158,-0.491C0.194,-0.516 0.235,-0.529 0.281,-0.529C0.326,-0.529 0.366,-0.517 0.402,-0.493C0.437,-0.469 0.464,-0.44 0.484,-0.407L0.484,-0.73L0.534,-0.73L0.534,-0.066C0.534,-0.058 0.536,-0.052 0.539,-0.048C0.543,-0.044 0.548,-0.041 0.555,-0.041L0.555,-0C0.545,0.001 0.536,0.001 0.531,0.001C0.519,-0.001 0.509,-0.007 0.501,-0.016C0.493,-0.025 0.489,-0.035 0.489,-0.046L0.489,-0.104C0.468,-0.07 0.439,-0.042 0.403,-0.021C0.367,-0 0.33,0.01 0.292,0.01C0.256,0.01 0.222,0.003 0.192,-0.012C0.161,-0.027 0.135,-0.047 0.113,-0.073C0.09,-0.098 0.073,-0.127 0.061,-0.159C0.048,-0.191 0.042,-0.224 0.042,-0.259ZM0.484,-0.175L0.484,-0.346C0.475,-0.372 0.46,-0.395 0.439,-0.415C0.419,-0.436 0.395,-0.453 0.369,-0.465C0.343,-0.478 0.318,-0.484 0.292,-0.484C0.262,-0.484 0.234,-0.478 0.21,-0.465C0.186,-0.452 0.165,-0.435 0.147,-0.414C0.13,-0.392 0.117,-0.368 0.107,-0.342C0.098,-0.315 0.093,-0.287 0.093,-0.258C0.093,-0.229 0.099,-0.2 0.109,-0.174C0.12,-0.147 0.134,-0.123 0.154,-0.102C0.173,-0.081 0.195,-0.064 0.22,-0.053C0.245,-0.041 0.272,-0.035 0.301,-0.035C0.319,-0.035 0.338,-0.038 0.359,-0.046C0.379,-0.053 0.398,-0.063 0.417,-0.076C0.435,-0.089 0.45,-0.104 0.462,-0.121C0.475,-0.138 0.482,-0.156 0.484,-0.175Z" style="fill:rgb(39,49,63);fill-rule:nonzero;"/>
        </g>
        <g transform="matrix(235.927,0,0,235.927,1180.89,226.984)">
            <path d="M0.299,0.01C0.262,0.01 0.229,0.003 0.197,-0.012C0.166,-0.026 0.139,-0.046 0.116,-0.071C0.092,-0.095 0.074,-0.124 0.061,-0.157C0.048,-0.19 0.042,-0.225 0.042,-0.262C0.042,-0.311 0.053,-0.356 0.075,-0.396C0.097,-0.436 0.128,-0.468 0.166,-0.493C0.205,-0.517 0.248,-0.529 0.296,-0.529C0.345,-0.529 0.389,-0.517 0.427,-0.492C0.465,-0.468 0.496,-0.435 0.518,-0.395C0.54,-0.355 0.551,-0.31 0.551,-0.262C0.551,-0.258 0.551,-0.254 0.551,-0.25C0.551,-0.246 0.551,-0.243 0.55,-0.241L0.094,-0.241C0.097,-0.201 0.108,-0.165 0.127,-0.133C0.146,-0.101 0.171,-0.076 0.201,-0.058C0.232,-0.039 0.265,-0.03 0.301,-0.03C0.337,-0.03 0.371,-0.04 0.403,-0.058C0.435,-0.076 0.457,-0.1 0.47,-0.13L0.514,-0.118C0.504,-0.093 0.488,-0.071 0.467,-0.052C0.445,-0.033 0.42,-0.017 0.391,-0.006C0.362,0.005 0.331,0.01 0.299,0.01ZM0.092,-0.279L0.503,-0.279C0.501,-0.32 0.49,-0.356 0.471,-0.387C0.452,-0.419 0.427,-0.443 0.397,-0.461C0.367,-0.479 0.334,-0.488 0.297,-0.488C0.261,-0.488 0.227,-0.479 0.197,-0.461C0.167,-0.443 0.143,-0.419 0.124,-0.387C0.106,-0.355 0.095,-0.319 0.092,-0.279Z" style="fill:rgb(39,49,63);fill-rule:nonzero;"/>
        </g>
        <g transform="matrix(235.927,0,0,235.927,1316.78,226.984)">
            <path d="M0.296,0.01C0.259,0.01 0.226,0.003 0.195,-0.011C0.164,-0.025 0.137,-0.045 0.114,-0.07C0.091,-0.095 0.073,-0.124 0.061,-0.156C0.048,-0.189 0.042,-0.223 0.042,-0.259C0.042,-0.296 0.048,-0.33 0.061,-0.363C0.074,-0.395 0.092,-0.424 0.115,-0.449C0.138,-0.474 0.165,-0.493 0.196,-0.508C0.227,-0.522 0.26,-0.529 0.296,-0.529C0.332,-0.529 0.365,-0.522 0.396,-0.508C0.427,-0.493 0.454,-0.474 0.477,-0.449C0.5,-0.424 0.518,-0.395 0.531,-0.363C0.544,-0.33 0.55,-0.296 0.55,-0.259C0.55,-0.223 0.544,-0.189 0.531,-0.156C0.518,-0.124 0.501,-0.095 0.477,-0.07C0.454,-0.045 0.427,-0.025 0.396,-0.011C0.366,0.003 0.332,0.01 0.296,0.01ZM0.092,-0.257C0.092,-0.216 0.102,-0.179 0.12,-0.145C0.138,-0.112 0.163,-0.085 0.193,-0.065C0.224,-0.045 0.258,-0.035 0.295,-0.035C0.332,-0.035 0.366,-0.045 0.397,-0.065C0.428,-0.085 0.453,-0.113 0.472,-0.147C0.49,-0.181 0.499,-0.219 0.499,-0.26C0.499,-0.301 0.49,-0.338 0.472,-0.372C0.453,-0.406 0.428,-0.433 0.398,-0.454C0.367,-0.474 0.333,-0.484 0.296,-0.484C0.259,-0.484 0.225,-0.474 0.194,-0.453C0.163,-0.432 0.139,-0.405 0.12,-0.371C0.102,-0.337 0.092,-0.299 0.092,-0.257Z" style="fill:rgb(39,49,63);fill-rule:nonzero;"/>
        </g>
    </g>
</svg>
